<?xml version="1.0" encoding="utf-8"?>
<!-- Generator: Adobe Illustrator 24.0.0, SVG Export Plug-In . SVG Version: 6.00 Build 0)  -->
<svg version="1.1" id="Layer_1" xmlns="http://www.w3.org/2000/svg" xmlns:xlink="http://www.w3.org/1999/xlink" x="0px" y="0px"
	 viewBox="0 0 1500 1500" style="enable-background:new 0 0 1500 1500;" xml:space="preserve">
<style type="text/css">
	.st0{fill:#E0E1E2;}
	.st1{opacity:0.45;}
	.st2{clip-path:url(#SVGID_2_);}
	.st3{opacity:0.48;}
	.st4{clip-path:url(#SVGID_4_);}
	.st5{opacity:0.43;}
	.st6{clip-path:url(#SVGID_6_);}
	.st7{opacity:0.53;}
	.st8{clip-path:url(#SVGID_8_);}
	.st9{opacity:0.6;}
	.st10{clip-path:url(#SVGID_10_);}
	.st11{opacity:0.56;}
	.st12{clip-path:url(#SVGID_12_);}
	.st13{clip-path:url(#SVGID_14_);}
	.st14{clip-path:url(#SVGID_16_);}
	.st15{clip-path:url(#SVGID_18_);}
	.st16{clip-path:url(#SVGID_20_);}
	.st17{clip-path:url(#SVGID_22_);}
	.st18{clip-path:url(#SVGID_24_);}
	.st19{clip-path:url(#SVGID_26_);}
	.st20{clip-path:url(#SVGID_28_);}
</style>
<path class="st0" d="M18,635.88v204.61l75.81,65.04l74.53-65.67l-71.96-0.63l-0.63-140.23h1.94l55.26,45.48
	c36.42-0.43,72.82-0.86,109.24-1.25c-55.26-44.66-110.52-89.28-165.79-133.91h-8.99L18,635.88z"/>
<polygon class="st0" points="321.32,609.96 208.85,700.29 262.2,743.24 321.32,698.38 322.6,698.38 322.6,840.49 248.07,840.49 
	322.6,905.53 400.98,841.74 400.98,637.75 330.31,609.96 "/>
<g class="st1">
	<g>
		<g>
			<defs>
				<rect id="SVGID_1_" x="18" y="635.88" width="77.76" height="87.14"/>
			</defs>
			<clipPath id="SVGID_2_">
				<use xlink:href="#SVGID_1_"  style="overflow:visible;"/>
			</clipPath>
			<polygon class="st2" points="18,635.88 95.76,699.01 95.76,723.02 			"/>
		</g>
	</g>
</g>
<g class="st3">
	<g>
		<g>
			<defs>
				<rect id="SVGID_3_" x="208.85" y="688.17" width="53.35" height="55.06"/>
			</defs>
			<clipPath id="SVGID_4_">
				<use xlink:href="#SVGID_3_"  style="overflow:visible;"/>
			</clipPath>
			<polygon class="st4" points="208.85,700.29 262.2,743.24 223.93,688.17 			"/>
		</g>
	</g>
</g>
<g class="st5">
	<g>
		<g>
			<defs>
				<rect id="SVGID_5_" x="322.6" y="637.75" width="78.38" height="85.26"/>
			</defs>
			<clipPath id="SVGID_6_">
				<use xlink:href="#SVGID_5_"  style="overflow:visible;"/>
			</clipPath>
			<polygon class="st6" points="400.98,637.75 322.6,698.38 322.6,723.02 			"/>
		</g>
	</g>
</g>
<g class="st7">
	<g>
		<g>
			<defs>
				<rect id="SVGID_7_" x="93.85" y="839.21" width="15.35" height="66.29"/>
			</defs>
			<clipPath id="SVGID_8_">
				<use xlink:href="#SVGID_7_"  style="overflow:visible;"/>
			</clipPath>
			<polygon class="st8" points="95.76,839.21 109.19,839.34 93.85,905.53 			"/>
		</g>
	</g>
</g>
<g class="st9">
	<g>
		<g>
			<defs>
				<rect id="SVGID_9_" x="307.81" y="840.49" width="14.79" height="65.04"/>
			</defs>
			<clipPath id="SVGID_10_">
				<use xlink:href="#SVGID_9_"  style="overflow:visible;"/>
			</clipPath>
			<polygon class="st10" points="322.6,840.49 322.6,905.53 307.81,840.49 			"/>
		</g>
	</g>
</g>
<polygon class="st0" points="1306.52,906.16 1250.66,870.2 1334.08,615.46 1405.68,615.46 1500,906.16 1433.9,906.16 
	1369.88,713.17 "/>
<g class="st11">
	<g>
		<g>
			<defs>
				<rect id="SVGID_11_" x="1371.33" y="614.96" width="34.58" height="124.36"/>
			</defs>
			<clipPath id="SVGID_12_">
				<use xlink:href="#SVGID_11_"  style="overflow:visible;"/>
			</clipPath>
			<polygon class="st12" points="1371.33,716.17 1405.91,614.96 1378.34,739.35 			"/>
		</g>
	</g>
</g>
<polygon class="st0" points="1307.18,905.67 1388.39,823.27 1333.42,823.27 1307.31,905.67 "/>
<g class="st9">
	<g>
		<g>
			<defs>
				<rect id="SVGID_13_" x="1306.52" y="823.76" width="43.44" height="82.4"/>
			</defs>
			<clipPath id="SVGID_14_">
				<use xlink:href="#SVGID_13_"  style="overflow:visible;"/>
			</clipPath>
			<polygon class="st13" points="1333.55,823.86 1349.96,823.76 1306.52,906.16 			"/>
		</g>
	</g>
</g>
<polygon class="st0" points="1138.36,614.96 1201.2,614.96 1201.2,887.78 1139.81,905.67 1056.09,756.31 1054.28,905.67 
	994.54,905.67 994.54,635.88 1045.55,614.96 1055.73,614.96 1138.36,770.8 "/>
<g class="st9">
	<g>
		<g>
			<defs>
				<rect id="SVGID_15_" x="1055.73" y="614.96" width="14.39" height="166.31"/>
			</defs>
			<clipPath id="SVGID_16_">
				<use xlink:href="#SVGID_15_"  style="overflow:visible;"/>
			</clipPath>
			<polygon class="st14" points="1055.73,614.96 1055.73,754.34 1070.09,781.31 			"/>
		</g>
	</g>
</g>
<g class="st9">
	<g>
		<g>
			<defs>
				<rect id="SVGID_17_" x="1138.36" y="746.83" width="62.34" height="140.86"/>
			</defs>
			<clipPath id="SVGID_18_">
				<use xlink:href="#SVGID_17_"  style="overflow:visible;"/>
			</clipPath>
			<polygon class="st15" points="1138.36,770.8 1200.7,887.68 1138.36,746.83 			"/>
		</g>
	</g>
</g>
<polygon class="st0" points="1055.73,614.96 1056.09,756.31 1138.36,905.67 1200.7,887.68 "/>
<polygon class="st0" points="1305.89,905.67 1250.79,869.7 1333.42,614.96 1405.91,614.96 "/>
<g class="st9">
	<g>
		<g>
			<defs>
				<rect id="SVGID_19_" x="1055.73" y="614.96" width="15.94" height="167.83"/>
			</defs>
			<clipPath id="SVGID_20_">
				<use xlink:href="#SVGID_19_"  style="overflow:visible;"/>
			</clipPath>
			<polygon class="st16" points="1055.73,614.96 1056.16,757.23 1071.67,782.79 			"/>
		</g>
	</g>
</g>
<polygon class="st0" points="480.02,896.64 424.13,860.68 507.55,605.94 579.15,605.94 673.51,896.64 607.41,896.64 543.35,703.65 
	"/>
<g class="st11">
	<g>
		<g>
			<defs>
				<rect id="SVGID_21_" x="544.8" y="605.45" width="34.58" height="124.36"/>
			</defs>
			<clipPath id="SVGID_22_">
				<use xlink:href="#SVGID_21_"  style="overflow:visible;"/>
			</clipPath>
			<polygon class="st17" points="544.8,706.65 579.41,605.45 551.85,729.8 			"/>
		</g>
	</g>
</g>
<polygon class="st0" points="480.68,896.15 561.86,813.72 506.9,813.72 480.81,896.15 "/>
<g class="st9">
	<g>
		<g>
			<defs>
				<rect id="SVGID_23_" x="480.02" y="814.21" width="43.44" height="82.4"/>
			</defs>
			<clipPath id="SVGID_24_">
				<use xlink:href="#SVGID_23_"  style="overflow:visible;"/>
			</clipPath>
			<polygon class="st18" points="507.03,814.31 523.46,814.21 480.02,896.64 			"/>
		</g>
	</g>
</g>
<polygon class="st0" points="479.36,896.15 424.27,860.18 506.9,605.45 579.38,605.45 "/>
<polygon class="st0" points="697.18,827.58 697.02,828.57 786.83,905.53 876.8,905.53 738.09,784.7 "/>
<g class="st9">
	<g>
		<g>
			<defs>
				<rect id="SVGID_25_" x="696.36" y="784.8" width="58.59" height="43.77"/>
			</defs>
			<clipPath id="SVGID_26_">
				<use xlink:href="#SVGID_25_"  style="overflow:visible;"/>
			</clipPath>
			<polygon class="st19" points="738.02,784.8 696.36,828.57 754.98,799.88 			"/>
		</g>
	</g>
</g>
<polygon class="st0" points="696.36,828.57 856.75,662.55 822.82,597.64 693.3,726.48 "/>
<polygon class="st0" points="876.8,905.53 944.65,818 933.84,741.03 825.92,861.77 "/>
<polygon class="st0" points="933.84,741.03 862.9,741.03 903.54,777.98 "/>
<g class="st9">
	<g>
		<g>
			<defs>
				<rect id="SVGID_27_" x="891.85" y="741.03" width="41.99" height="37.74"/>
			</defs>
			<clipPath id="SVGID_28_">
				<use xlink:href="#SVGID_27_"  style="overflow:visible;"/>
			</clipPath>
			<polygon class="st20" points="933.84,741.03 891.85,767.38 903.02,778.74 			"/>
		</g>
	</g>
</g>
</svg>
