<?xml version="1.0" encoding="UTF-8"?>
<svg id="Layer_1" xmlns="http://www.w3.org/2000/svg" xmlns:xlink="http://www.w3.org/1999/xlink" version="1.1" viewBox="0 0 350 150">
  <!-- Generator: Adobe Illustrator 29.5.1, SVG Export Plug-In . SVG Version: 2.1.0 Build 141)  -->
  <defs>
    <style>
      .st0 {
        fill: none;
      }

      .st1 {
        fill: #003;
      }

      .st2 {
        fill: #4d4d4d;
      }

      .st3 {
        clip-path: url(#clippath-1);
      }

      .st4 {
        clip-path: url(#clippath-3);
      }

      .st5 {
        clip-path: url(#clippath-4);
      }

      .st6 {
        clip-path: url(#clippath-2);
      }

      .st7 {
        clip-path: url(#clippath-7);
      }

      .st8 {
        clip-path: url(#clippath-6);
      }

      .st9 {
        clip-path: url(#clippath-8);
      }

      .st10 {
        clip-path: url(#clippath-5);
      }

      .st11 {
        opacity: .45;
      }

      .st12 {
        opacity: .43;
      }

      .st13 {
        opacity: .6;
      }

      .st14 {
        opacity: .56;
      }

      .st15 {
        opacity: .53;
      }

      .st16 {
        opacity: .48;
      }

      .st17 {
        clip-path: url(#clippath);
      }
    </style>
    <clipPath id="clippath">
      <rect class="st0" x="38.7" y="39.05" width="23.4" height="26.3"/>
    </clipPath>
    <clipPath id="clippath-1">
      <rect class="st0" x="96.3" y="54.85" width="16.1" height="16.6"/>
    </clipPath>
    <clipPath id="clippath-2">
      <rect class="st0" x="130.6" y="39.65" width="23.6" height="25.7"/>
    </clipPath>
    <clipPath id="clippath-3">
      <rect class="st0" x="61.6" y="100.35" width="4.6" height="20"/>
    </clipPath>
    <clipPath id="clippath-4">
      <rect class="st0" x="126.1" y="100.75" width="4.5" height="19.6"/>
    </clipPath>
    <clipPath id="clippath-5">
      <rect class="st0" x="197.6" y="29.95" width="10.5" height="37.5"/>
    </clipPath>
    <clipPath id="clippath-6">
      <rect class="st0" x="178.1" y="92.85" width="13.1" height="24.9"/>
    </clipPath>
    <clipPath id="clippath-7">
      <rect class="st0" x="243.3" y="83.95" width="17.7" height="13.2"/>
    </clipPath>
    <clipPath id="clippath-8">
      <rect class="st0" x="302.2" y="70.75" width="12.6" height="11.4"/>
    </clipPath>
  </defs>
  <g>
    <path class="st1" d="M38.7,39.05v61.7l22.9,19.6,22.5-19.8-21.7-.2-.2-42.2h.6l16.7,13.7c11-.1,22-.2,33-.4-16.8-13.5-33.5-26.9-50.1-40.4h-2.7l-21,8Z"/>
    <polygon class="st2" points="130.2 31.25 96.3 58.45 112.4 71.45 130.2 57.95 130.6 57.95 130.6 100.75 108.1 100.75 130.6 120.35 154.2 101.15 154.2 39.65 132.9 31.25 130.2 31.25"/>
    <g class="st11">
      <g class="st17">
        <polygon points="38.7 39.05 62.2 58.15 62.2 65.35 38.7 39.05"/>
      </g>
    </g>
    <g class="st16">
      <g class="st3">
        <polygon points="96.3 58.45 112.4 71.45 100.8 54.85 96.3 58.45"/>
      </g>
    </g>
    <g class="st12">
      <g class="st6">
        <polygon points="154.2 39.65 130.6 57.95 130.6 65.35 154.2 39.65"/>
      </g>
    </g>
    <g class="st15">
      <g class="st4">
        <polygon points="62.2 100.35 66.2 100.45 61.6 120.35 62.2 100.35"/>
      </g>
    </g>
    <g class="st13">
      <g class="st5">
        <polygon points="130.6 100.75 130.6 120.35 126.1 100.75 130.6 100.75"/>
      </g>
    </g>
    <polygon class="st2" points="178.1 117.65 161.2 106.85 186.3 30.05 207.9 30.05 236.3 117.65 216.4 117.65 197.2 59.45 178.1 117.65"/>
    <g class="st14">
      <g class="st10">
        <polygon points="197.6 60.45 208 29.95 199.7 67.35 197.6 60.45"/>
      </g>
    </g>
    <polygon class="st2" points="178.2 117.55 202.7 92.65 186.2 92.65 178.3 117.55 178.2 117.55"/>
    <g class="st13">
      <g class="st8">
        <polygon points="186.2 92.85 191.1 92.85 178.1 117.65 186.2 92.85"/>
      </g>
    </g>
    <polygon class="st1" points="177.8 117.55 161.3 106.75 186.2 29.95 208 29.95 177.8 117.55"/>
    <polygon class="st2" points="243.5 96.85 243.5 97.15 270.5 120.35 297.7 120.35 255.9 83.95 243.5 96.85"/>
    <g class="st13">
      <g class="st7">
        <polygon points="255.9 83.95 243.3 97.15 261 88.45 255.9 83.95"/>
      </g>
    </g>
    <polygon class="st1" points="243.3 97.15 291.6 47.15 281.4 27.55 242.3 66.35 243.3 97.15"/>
    <polygon class="st1" points="297.7 120.35 318.1 93.95 314.9 70.75 282.4 107.15 297.7 120.35"/>
    <polygon class="st2" points="314.9 70.75 293.5 70.75 305.2 81.65 314.9 70.75"/>
    <g class="st13">
      <g class="st9">
        <polygon points="314.9 70.75 302.2 78.75 305.2 81.65 314.9 70.75"/>
      </g>
    </g>
  </g>
  <polygon points="282.4 107.15 297.7 120.35 285.1 104.15 282.4 107.15"/>
</svg>