<?xml version="1.0" encoding="utf-8"?>
<!-- Generator: Adobe Illustrator 24.0.0, SVG Export Plug-In . SVG Version: 6.00 Build 0)  -->
<svg version="1.1" id="Layer_1" xmlns="http://www.w3.org/2000/svg" xmlns:xlink="http://www.w3.org/1999/xlink" x="0px" y="0px"
	 viewBox="0 0 450 150" style="enable-background:new 0 0 450 150;" xml:space="preserve">
<style type="text/css">
	.st0{fill:#CCCCCC;}
	.st1{opacity:0.45;}
	.st2{clip-path:url(#SVGID_2_);}
	.st3{opacity:0.48;}
	.st4{clip-path:url(#SVGID_4_);}
	.st5{opacity:0.43;}
	.st6{clip-path:url(#SVGID_6_);}
	.st7{opacity:0.53;}
	.st8{clip-path:url(#SVGID_8_);}
	.st9{opacity:0.6;}
	.st10{clip-path:url(#SVGID_10_);}
	.st11{opacity:0.56;}
	.st12{clip-path:url(#SVGID_12_);}
	.st13{clip-path:url(#SVGID_14_);}
	.st14{clip-path:url(#SVGID_16_);}
	.st15{clip-path:url(#SVGID_18_);}
	.st16{fill:none;}
	.st17{clip-path:url(#SVGID_20_);}
	.st18{clip-path:url(#SVGID_22_);}
	.st19{clip-path:url(#SVGID_24_);}
	.st20{clip-path:url(#SVGID_26_);}
	.st21{clip-path:url(#SVGID_28_);}
	.st22{opacity:0.6;enable-background:new    ;}
</style>
<path class="st0" d="M0,43.8V106l23,19.8l22.6-19.9l-21.9-0.2L23.6,63h0.6L41,76.8c11.1-0.1,22.1-0.3,33.2-0.4
	C57.4,62.9,40.6,49.3,23.8,35.8h-2.7L0,43.8z"/>
<polygon class="st0" points="92.1,36 58,63.4 74.2,76.4 92.1,62.8 92.5,62.8 92.5,106 69.9,106 92.5,125.7 116.3,106.3 116.3,44.4 
	94.8,36 "/>
<g class="st1">
	<g>
		<g>
			<g>
				<g>
					<g>
						<defs>
							<rect id="SVGID_1_" y="43.8" width="23.6" height="26.5"/>
						</defs>
						<clipPath id="SVGID_2_">
							<use xlink:href="#SVGID_1_"  style="overflow:visible;"/>
						</clipPath>
						<polygon class="st2" points="0,43.8 23.6,63 23.6,70.3 						"/>
					</g>
				</g>
			</g>
		</g>
	</g>
</g>
<g class="st3">
	<g>
		<g>
			<g>
				<g>
					<g>
						<defs>
							<rect id="SVGID_3_" x="58" y="59.7" width="16.2" height="16.7"/>
						</defs>
						<clipPath id="SVGID_4_">
							<use xlink:href="#SVGID_3_"  style="overflow:visible;"/>
						</clipPath>
						<polygon class="st4" points="58,63.4 74.2,76.4 62.5,59.7 						"/>
					</g>
				</g>
			</g>
		</g>
	</g>
</g>
<g class="st5">
	<g>
		<g>
			<g>
				<g>
					<g>
						<defs>
							<rect id="SVGID_5_" x="92.5" y="44.4" width="23.8" height="25.9"/>
						</defs>
						<clipPath id="SVGID_6_">
							<use xlink:href="#SVGID_5_"  style="overflow:visible;"/>
						</clipPath>
						<polygon class="st6" points="116.3,44.4 92.5,62.8 92.5,70.3 						"/>
					</g>
				</g>
			</g>
		</g>
	</g>
</g>
<g class="st7">
	<g>
		<g>
			<g>
				<g>
					<g>
						<defs>
							<rect id="SVGID_7_" x="23" y="105.6" width="4.7" height="20.1"/>
						</defs>
						<clipPath id="SVGID_8_">
							<use xlink:href="#SVGID_7_"  style="overflow:visible;"/>
						</clipPath>
						<polygon class="st8" points="23.6,105.6 27.7,105.6 23,125.7 						"/>
					</g>
				</g>
			</g>
		</g>
	</g>
</g>
<g class="st9">
	<g>
		<g>
			<g>
				<g>
					<g>
						<defs>
							<rect id="SVGID_9_" x="88" y="106" width="4.5" height="19.8"/>
						</defs>
						<clipPath id="SVGID_10_">
							<use xlink:href="#SVGID_9_"  style="overflow:visible;"/>
						</clipPath>
						<polygon class="st10" points="92.5,106 92.5,125.7 88,106 						"/>
					</g>
				</g>
			</g>
		</g>
	</g>
</g>
<polygon class="st0" points="391.2,125.9 374.3,115 399.6,37.6 421.4,37.6 450,125.9 429.9,125.9 410.5,67.3 "/>
<g class="st11">
	<g>
		<g>
			<g>
				<g>
					<g>
						<defs>
							<rect id="SVGID_11_" x="410.9" y="37.5" width="10.5" height="37.8"/>
						</defs>
						<clipPath id="SVGID_12_">
							<use xlink:href="#SVGID_11_"  style="overflow:visible;"/>
						</clipPath>
						<polygon class="st12" points="410.9,68.2 421.4,37.5 413.1,75.2 						"/>
					</g>
				</g>
			</g>
		</g>
	</g>
</g>
<polygon class="st0" points="391.5,125.8 416.1,100.7 399.4,100.7 "/>
<g class="st9">
	<g>
		<g>
			<g>
				<g>
					<g>
						<defs>
							<rect id="SVGID_13_" x="391.2" y="100.9" width="13.2" height="25"/>
						</defs>
						<clipPath id="SVGID_14_">
							<use xlink:href="#SVGID_13_"  style="overflow:visible;"/>
						</clipPath>
						<polygon class="st13" points="399.5,100.9 404.4,100.9 391.2,125.9 						"/>
					</g>
				</g>
			</g>
		</g>
	</g>
</g>
<polygon class="st0" points="340.2,37.5 359.3,37.5 359.3,120.3 340.6,125.8 315.2,80.4 314.7,125.8 296.5,125.8 296.5,43.8 
	312,37.5 315.1,37.5 340.2,84.8 "/>
<g class="st9">
	<g>
		<g>
			<g>
				<g>
					<g>
						<defs>
							<rect id="SVGID_15_" x="315.1" y="37.5" width="4.4" height="50.5"/>
						</defs>
						<clipPath id="SVGID_16_">
							<use xlink:href="#SVGID_15_"  style="overflow:visible;"/>
						</clipPath>
						<polygon class="st14" points="315.1,37.5 315.1,79.8 319.5,88 						"/>
					</g>
				</g>
			</g>
		</g>
	</g>
</g>
<g class="st9">
	<g>
		<g>
			<g>
				<g>
					<g>
						<defs>
							<rect id="SVGID_17_" x="340.2" y="77.5" width="18.9" height="42.8"/>
						</defs>
						<clipPath id="SVGID_18_">
							<use xlink:href="#SVGID_17_"  style="overflow:visible;"/>
						</clipPath>
						<polygon class="st15" points="340.2,84.8 359.1,120.3 340.2,77.5 						"/>
					</g>
				</g>
			</g>
		</g>
	</g>
</g>
<polygon class="st16" points="315.1,37.5 315.2,80.4 340.2,125.8 359.1,120.3 "/>
<polygon class="st0" points="391.1,125.8 374.3,114.8 399.4,37.5 421.4,37.5 "/>
<g class="st9">
	<g>
		<g>
			<g>
				<g>
					<g>
						<defs>
							<rect id="SVGID_19_" x="315.1" y="37.5" width="4.8" height="51"/>
						</defs>
						<clipPath id="SVGID_20_">
							<use xlink:href="#SVGID_19_"  style="overflow:visible;"/>
						</clipPath>
						<polygon class="st17" points="315.1,37.5 315.2,80.7 319.9,88.4 						"/>
					</g>
				</g>
			</g>
		</g>
	</g>
</g>
<polygon class="st0" points="140.3,123 123.3,112.1 148.6,34.7 170.4,34.7 199,123 179,123 159.5,64.4 "/>
<g class="st11">
	<g>
		<g>
			<g>
				<g>
					<g>
						<defs>
							<rect id="SVGID_21_" x="160" y="34.6" width="10.5" height="37.8"/>
						</defs>
						<clipPath id="SVGID_22_">
							<use xlink:href="#SVGID_21_"  style="overflow:visible;"/>
						</clipPath>
						<polygon class="st18" points="160,65.3 170.5,34.6 162.1,72.3 						"/>
					</g>
				</g>
			</g>
		</g>
	</g>
</g>
<polygon class="st0" points="140.5,122.9 165.1,97.8 148.4,97.8 "/>
<g class="st9">
	<g>
		<g>
			<g>
				<g>
					<g>
						<defs>
							<rect id="SVGID_23_" x="140.3" y="98" width="13.2" height="25"/>
						</defs>
						<clipPath id="SVGID_24_">
							<use xlink:href="#SVGID_23_"  style="overflow:visible;"/>
						</clipPath>
						<polygon class="st19" points="148.5,98 153.5,98 140.3,123 						"/>
					</g>
				</g>
			</g>
		</g>
	</g>
</g>
<polygon class="st0" points="140.1,122.9 123.4,111.9 148.4,34.6 170.5,34.6 "/>
<polygon class="st0" points="206.2,102 206.2,102.3 233.4,125.7 260.8,125.7 218.6,89 "/>
<g class="st9">
	<g>
		<g>
			<g>
				<g>
					<g>
						<defs>
							<rect id="SVGID_25_" x="206" y="89.1" width="17.8" height="13.3"/>
						</defs>
						<clipPath id="SVGID_26_">
							<use xlink:href="#SVGID_25_"  style="overflow:visible;"/>
						</clipPath>
						<polygon class="st20" points="218.6,89.1 206,102.3 223.8,93.6 						"/>
					</g>
				</g>
			</g>
		</g>
	</g>
</g>
<polygon class="st0" points="206,102.3 254.7,51.9 244.4,32.2 205.1,71.3 "/>
<polygon class="st0" points="260.8,125.7 281.4,99.1 278.1,75.8 245.3,112.4 "/>
<polygon class="st0" points="278.1,75.8 256.5,75.8 268.3,86.8 "/>
<g class="st9">
	<g>
		<g>
			<g>
				<g>
					<g>
						<defs>
							<rect id="SVGID_27_" x="265.3" y="75.8" width="12.8" height="11.5"/>
						</defs>
						<clipPath id="SVGID_28_">
							<use xlink:href="#SVGID_27_"  style="overflow:visible;"/>
						</clipPath>
						<polygon class="st21" points="278.1,75.8 265.2,83.9 268.3,86.8 						"/>
					</g>
				</g>
			</g>
		</g>
	</g>
</g>
<polygon class="st22" points="245.3,112.4 260.8,125.7 249.3,107.9 "/>
</svg>
