<?xml version="1.0" encoding="UTF-8"?>
<svg id="Layer_1" xmlns="http://www.w3.org/2000/svg" xmlns:xlink="http://www.w3.org/1999/xlink" version="1.1" viewBox="0 0 282.15 150">
  <!-- Generator: Adobe Illustrator 29.5.1, SVG Export Plug-In . SVG Version: 2.1.0 Build 141)  -->
  <defs>
    <style>
      .st0 {
        fill: none;
      }

      .st1 {
        isolation: isolate;
      }

      .st1, .st2 {
        opacity: .6;
      }

      .st3 {
        fill: #ccc;
      }

      .st4 {
        clip-path: url(#clippath-1);
      }

      .st5 {
        clip-path: url(#clippath-3);
      }

      .st6 {
        clip-path: url(#clippath-4);
      }

      .st7 {
        clip-path: url(#clippath-2);
      }

      .st8 {
        clip-path: url(#clippath-7);
      }

      .st9 {
        clip-path: url(#clippath-6);
      }

      .st10 {
        clip-path: url(#clippath-8);
      }

      .st11 {
        clip-path: url(#clippath-5);
      }

      .st12 {
        opacity: .45;
      }

      .st13 {
        opacity: .43;
      }

      .st14 {
        opacity: .56;
      }

      .st15 {
        opacity: .53;
      }

      .st16 {
        opacity: .48;
      }

      .st17 {
        clip-path: url(#clippath);
      }
    </style>
    <clipPath id="clippath">
      <rect class="st0" y="43.8" width="23.6" height="26.5"/>
    </clipPath>
    <clipPath id="clippath-1">
      <rect class="st0" x="58" y="59.7" width="16.2" height="16.7"/>
    </clipPath>
    <clipPath id="clippath-2">
      <rect class="st0" x="92.5" y="44.4" width="23.8" height="25.9"/>
    </clipPath>
    <clipPath id="clippath-3">
      <rect class="st0" x="23" y="105.6" width="4.7" height="20.1"/>
    </clipPath>
    <clipPath id="clippath-4">
      <rect class="st0" x="88" y="106" width="4.5" height="19.8"/>
    </clipPath>
    <clipPath id="clippath-5">
      <rect class="st0" x="160" y="34.6" width="10.5" height="37.8"/>
    </clipPath>
    <clipPath id="clippath-6">
      <rect class="st0" x="140.3" y="98" width="13.2" height="25"/>
    </clipPath>
    <clipPath id="clippath-7">
      <rect class="st0" x="206" y="89.1" width="17.8" height="13.3"/>
    </clipPath>
    <clipPath id="clippath-8">
      <rect class="st0" x="265.3" y="75.8" width="12.8" height="11.5"/>
    </clipPath>
  </defs>
  <path class="st3" d="M0,43.8v62.2l23,19.8,22.6-19.9-21.9-.2-.1-42.7h.6l16.8,13.8c11.1-.1,22.1-.3,33.2-.4-16.8-13.5-33.6-27.1-50.4-40.6h-2.7L0,43.8Z"/>
  <polygon class="st3" points="92.1 36 58 63.4 74.2 76.4 92.1 62.8 92.5 62.8 92.5 106 69.9 106 92.5 125.7 116.3 106.3 116.3 44.4 94.8 36 92.1 36"/>
  <g class="st12">
    <g class="st17">
      <polygon points="0 43.8 23.6 63 23.6 70.3 0 43.8"/>
    </g>
  </g>
  <g class="st16">
    <g class="st4">
      <polygon points="58 63.4 74.2 76.4 62.5 59.7 58 63.4"/>
    </g>
  </g>
  <g class="st13">
    <g class="st7">
      <polygon points="116.3 44.4 92.5 62.8 92.5 70.3 116.3 44.4"/>
    </g>
  </g>
  <g class="st15">
    <g class="st5">
      <polygon points="23.6 105.6 27.7 105.6 23 125.7 23.6 105.6"/>
    </g>
  </g>
  <g class="st2">
    <g class="st6">
      <polygon points="92.5 106 92.5 125.7 88 106 92.5 106"/>
    </g>
  </g>
  <polygon class="st3" points="140.3 123 123.3 112.1 148.6 34.7 170.4 34.7 199 123 179 123 159.5 64.4 140.3 123"/>
  <g class="st14">
    <g class="st11">
      <polygon points="160 65.3 170.5 34.6 162.1 72.3 160 65.3"/>
    </g>
  </g>
  <polygon class="st3" points="140.5 122.9 165.1 97.8 148.4 97.8 140.5 122.9"/>
  <g class="st2">
    <g class="st9">
      <polygon points="148.5 98 153.5 98 140.3 123 148.5 98"/>
    </g>
  </g>
  <polygon class="st3" points="140.1 122.9 123.4 111.9 148.4 34.6 170.5 34.6 140.1 122.9"/>
  <polygon class="st3" points="206.2 102 206.2 102.3 233.4 125.7 260.8 125.7 218.6 89 206.2 102"/>
  <g class="st2">
    <g class="st8">
      <polygon points="218.6 89.1 206 102.3 223.8 93.6 218.6 89.1"/>
    </g>
  </g>
  <polygon class="st3" points="206 102.3 254.7 51.9 244.4 32.2 205.1 71.3 206 102.3"/>
  <polygon class="st3" points="260.8 125.7 281.4 99.1 278.1 75.8 245.3 112.4 260.8 125.7"/>
  <polygon class="st3" points="278.1 75.8 256.5 75.8 268.3 86.8 278.1 75.8"/>
  <g class="st2">
    <g class="st10">
      <polygon points="278.1 75.8 265.2 83.9 268.3 86.8 278.1 75.8"/>
    </g>
  </g>
  <polygon class="st1" points="245.3 112.4 260.8 125.7 249.3 107.9 245.3 112.4"/>
</svg>